G04 #@! TF.GenerationSoftware,KiCad,Pcbnew,(5.0.0)*
G04 #@! TF.CreationDate,2020-04-22T19:32:48+02:00*
G04 #@! TF.ProjectId,BE_Amplificateur_Audio,42455F416D706C696669636174657572,V0*
G04 #@! TF.SameCoordinates,Original*
G04 #@! TF.FileFunction,Copper,L1,Top,Signal*
G04 #@! TF.FilePolarity,Positive*
%FSLAX46Y46*%
G04 Gerber Fmt 4.6, Leading zero omitted, Abs format (unit mm)*
G04 Created by KiCad (PCBNEW (5.0.0)) date 04/22/20 19:32:48*
%MOMM*%
%LPD*%
G01*
G04 APERTURE LIST*
G04 #@! TA.AperFunction,ComponentPad*
%ADD10C,1.700000*%
G04 #@! TD*
G04 #@! TA.AperFunction,ComponentPad*
%ADD11C,1.900000*%
G04 #@! TD*
G04 #@! TA.AperFunction,ComponentPad*
%ADD12R,1.900000X1.900000*%
G04 #@! TD*
G04 #@! TA.AperFunction,ComponentPad*
%ADD13O,2.080000X3.600000*%
G04 #@! TD*
G04 #@! TA.AperFunction,Conductor*
%ADD14C,0.100000*%
G04 #@! TD*
G04 #@! TA.AperFunction,ComponentPad*
%ADD15C,2.080000*%
G04 #@! TD*
G04 #@! TA.AperFunction,ComponentPad*
%ADD16R,2.400000X2.400000*%
G04 #@! TD*
G04 #@! TA.AperFunction,ComponentPad*
%ADD17C,2.400000*%
G04 #@! TD*
G04 #@! TA.AperFunction,ComponentPad*
%ADD18O,1.900000X1.900000*%
G04 #@! TD*
G04 #@! TA.AperFunction,ComponentPad*
%ADD19C,6.000000*%
G04 #@! TD*
G04 #@! TA.AperFunction,ComponentPad*
%ADD20C,1.500000*%
G04 #@! TD*
G04 #@! TA.AperFunction,ComponentPad*
%ADD21R,1.900000X1.700000*%
G04 #@! TD*
G04 #@! TA.AperFunction,ComponentPad*
%ADD22R,1.700000X1.900000*%
G04 #@! TD*
G04 #@! TA.AperFunction,ComponentPad*
%ADD23R,1.800000X2.000000*%
G04 #@! TD*
G04 #@! TA.AperFunction,ComponentPad*
%ADD24O,2.400000X2.400000*%
G04 #@! TD*
G04 #@! TA.AperFunction,ComponentPad*
%ADD25R,1.900000X1.500000*%
G04 #@! TD*
G04 #@! TA.AperFunction,ComponentPad*
%ADD26R,1.500000X1.900000*%
G04 #@! TD*
G04 #@! TA.AperFunction,ComponentPad*
%ADD27C,3.500000*%
G04 #@! TD*
G04 #@! TA.AperFunction,ViaPad*
%ADD28C,3.500000*%
G04 #@! TD*
G04 #@! TA.AperFunction,ViaPad*
%ADD29C,1.900000*%
G04 #@! TD*
G04 #@! TA.AperFunction,Conductor*
%ADD30C,1.500000*%
G04 #@! TD*
G04 APERTURE END LIST*
D10*
G04 #@! TO.P,U1,7*
G04 #@! TO.N,Net-(R11-Pad2)*
X91498100Y-42692800D03*
G04 #@! TO.P,U1,1*
G04 #@! TO.N,Net-(J2-Pad2)*
X94038100Y-35092800D03*
G04 #@! TO.P,U1,6*
G04 #@! TO.N,Net-(D1-Pad2)*
X106738100Y-42692800D03*
G04 #@! TO.P,U1,2*
G04 #@! TO.N,Net-(R16-Pad1)*
X106738100Y-35092800D03*
G04 #@! TD*
D11*
G04 #@! TO.P,C3,2*
G04 #@! TO.N,-12V*
X127631200Y-27533600D03*
D12*
G04 #@! TO.P,C3,1*
G04 #@! TO.N,Net-(C3-Pad1)*
X122631200Y-27533600D03*
G04 #@! TD*
D11*
G04 #@! TO.P,C5,2*
G04 #@! TO.N,GND*
X49644300Y-66805800D03*
G04 #@! TO.P,C5,1*
G04 #@! TO.N,+12V*
X49644300Y-71805800D03*
G04 #@! TD*
G04 #@! TO.P,C7,1*
G04 #@! TO.N,GND*
X108966000Y-75742800D03*
G04 #@! TO.P,C7,2*
G04 #@! TO.N,-12V*
X108966000Y-80742800D03*
G04 #@! TD*
G04 #@! TO.P,C9,2*
G04 #@! TO.N,+12V*
X39069000Y-29095700D03*
G04 #@! TO.P,C9,1*
G04 #@! TO.N,GND*
X44069000Y-29095700D03*
G04 #@! TD*
G04 #@! TO.P,C11,1*
G04 #@! TO.N,-12V*
X73050400Y-48742600D03*
G04 #@! TO.P,C11,2*
G04 #@! TO.N,GND*
X73050400Y-53742600D03*
G04 #@! TD*
D13*
G04 #@! TO.P,J2,2*
G04 #@! TO.N,Net-(J2-Pad2)*
X106629200Y-26619200D03*
D14*
G04 #@! TD*
G04 #@! TO.N,GND*
G04 #@! TO.C,J2*
G36*
X112523705Y-24820404D02*
X112547973Y-24824004D01*
X112571772Y-24829965D01*
X112594871Y-24838230D01*
X112617050Y-24848720D01*
X112638093Y-24861332D01*
X112657799Y-24875947D01*
X112675977Y-24892423D01*
X112692453Y-24910601D01*
X112707068Y-24930307D01*
X112719680Y-24951350D01*
X112730170Y-24973529D01*
X112738435Y-24996628D01*
X112744396Y-25020427D01*
X112747996Y-25044695D01*
X112749200Y-25069199D01*
X112749200Y-28169201D01*
X112747996Y-28193705D01*
X112744396Y-28217973D01*
X112738435Y-28241772D01*
X112730170Y-28264871D01*
X112719680Y-28287050D01*
X112707068Y-28308093D01*
X112692453Y-28327799D01*
X112675977Y-28345977D01*
X112657799Y-28362453D01*
X112638093Y-28377068D01*
X112617050Y-28389680D01*
X112594871Y-28400170D01*
X112571772Y-28408435D01*
X112547973Y-28414396D01*
X112523705Y-28417996D01*
X112499201Y-28419200D01*
X110919199Y-28419200D01*
X110894695Y-28417996D01*
X110870427Y-28414396D01*
X110846628Y-28408435D01*
X110823529Y-28400170D01*
X110801350Y-28389680D01*
X110780307Y-28377068D01*
X110760601Y-28362453D01*
X110742423Y-28345977D01*
X110725947Y-28327799D01*
X110711332Y-28308093D01*
X110698720Y-28287050D01*
X110688230Y-28264871D01*
X110679965Y-28241772D01*
X110674004Y-28217973D01*
X110670404Y-28193705D01*
X110669200Y-28169201D01*
X110669200Y-25069199D01*
X110670404Y-25044695D01*
X110674004Y-25020427D01*
X110679965Y-24996628D01*
X110688230Y-24973529D01*
X110698720Y-24951350D01*
X110711332Y-24930307D01*
X110725947Y-24910601D01*
X110742423Y-24892423D01*
X110760601Y-24875947D01*
X110780307Y-24861332D01*
X110801350Y-24848720D01*
X110823529Y-24838230D01*
X110846628Y-24829965D01*
X110870427Y-24824004D01*
X110894695Y-24820404D01*
X110919199Y-24819200D01*
X112499201Y-24819200D01*
X112523705Y-24820404D01*
X112523705Y-24820404D01*
G37*
D15*
G04 #@! TO.P,J2,1*
G04 #@! TO.N,GND*
X111709200Y-26619200D03*
G04 #@! TD*
D12*
G04 #@! TO.P,C1,1*
G04 #@! TO.N,Net-(C1-Pad1)*
X56349900Y-105791000D03*
D11*
G04 #@! TO.P,C1,2*
G04 #@! TO.N,Net-(C1-Pad2)*
X61349900Y-105791000D03*
G04 #@! TD*
G04 #@! TO.P,C2,1*
G04 #@! TO.N,Net-(C2-Pad1)*
X92989400Y-102209600D03*
G04 #@! TO.P,C2,2*
G04 #@! TO.N,Net-(C2-Pad2)*
X97989400Y-102209600D03*
G04 #@! TD*
G04 #@! TO.P,C4,2*
G04 #@! TO.N,GND*
X39662100Y-65764400D03*
D12*
G04 #@! TO.P,C4,1*
G04 #@! TO.N,+12V*
X39662100Y-70764400D03*
G04 #@! TD*
G04 #@! TO.P,C6,1*
G04 #@! TO.N,GND*
X97993200Y-75082400D03*
D11*
G04 #@! TO.P,C6,2*
G04 #@! TO.N,-12V*
X97993200Y-70082400D03*
G04 #@! TD*
D16*
G04 #@! TO.P,C8,1*
G04 #@! TO.N,+12V*
X34366200Y-54622700D03*
D17*
G04 #@! TO.P,C8,2*
G04 #@! TO.N,GND*
X39366200Y-54622700D03*
G04 #@! TD*
D16*
G04 #@! TO.P,C10,1*
G04 #@! TO.N,GND*
X88607900Y-61887100D03*
D17*
G04 #@! TO.P,C10,2*
G04 #@! TO.N,-12V*
X93607900Y-61887100D03*
G04 #@! TD*
D12*
G04 #@! TO.P,D1,1*
G04 #@! TO.N,+12V*
X72999600Y-35674300D03*
D18*
G04 #@! TO.P,D1,2*
G04 #@! TO.N,Net-(D1-Pad2)*
X72999600Y-25514300D03*
G04 #@! TD*
D12*
G04 #@! TO.P,D2,1*
G04 #@! TO.N,Net-(D2-Pad1)*
X126695200Y-44640500D03*
D18*
G04 #@! TO.P,D2,2*
G04 #@! TO.N,Net-(C3-Pad1)*
X126695200Y-34480500D03*
G04 #@! TD*
G04 #@! TO.P,Dz1,2*
G04 #@! TO.N,Net-(Dz1-Pad2)*
X38328600Y-88074500D03*
D12*
G04 #@! TO.P,Dz1,1*
G04 #@! TO.N,+12V*
X38328600Y-77914500D03*
G04 #@! TD*
D19*
G04 #@! TO.P,HS1,1*
G04 #@! TO.N,N/C*
X103420462Y-57855449D03*
X128820462Y-57855449D03*
G04 #@! TD*
G04 #@! TO.P,HS2,1*
G04 #@! TO.N,N/C*
X40360600Y-40970200D03*
X65760600Y-40970200D03*
G04 #@! TD*
D14*
G04 #@! TO.N,-12V*
G04 #@! TO.C,J3*
G36*
X67476805Y-25112504D02*
X67501073Y-25116104D01*
X67524872Y-25122065D01*
X67547971Y-25130330D01*
X67570150Y-25140820D01*
X67591193Y-25153432D01*
X67610899Y-25168047D01*
X67629077Y-25184523D01*
X67645553Y-25202701D01*
X67660168Y-25222407D01*
X67672780Y-25243450D01*
X67683270Y-25265629D01*
X67691535Y-25288728D01*
X67697496Y-25312527D01*
X67701096Y-25336795D01*
X67702300Y-25361299D01*
X67702300Y-28461301D01*
X67701096Y-28485805D01*
X67697496Y-28510073D01*
X67691535Y-28533872D01*
X67683270Y-28556971D01*
X67672780Y-28579150D01*
X67660168Y-28600193D01*
X67645553Y-28619899D01*
X67629077Y-28638077D01*
X67610899Y-28654553D01*
X67591193Y-28669168D01*
X67570150Y-28681780D01*
X67547971Y-28692270D01*
X67524872Y-28700535D01*
X67501073Y-28706496D01*
X67476805Y-28710096D01*
X67452301Y-28711300D01*
X65872299Y-28711300D01*
X65847795Y-28710096D01*
X65823527Y-28706496D01*
X65799728Y-28700535D01*
X65776629Y-28692270D01*
X65754450Y-28681780D01*
X65733407Y-28669168D01*
X65713701Y-28654553D01*
X65695523Y-28638077D01*
X65679047Y-28619899D01*
X65664432Y-28600193D01*
X65651820Y-28579150D01*
X65641330Y-28556971D01*
X65633065Y-28533872D01*
X65627104Y-28510073D01*
X65623504Y-28485805D01*
X65622300Y-28461301D01*
X65622300Y-25361299D01*
X65623504Y-25336795D01*
X65627104Y-25312527D01*
X65633065Y-25288728D01*
X65641330Y-25265629D01*
X65651820Y-25243450D01*
X65664432Y-25222407D01*
X65679047Y-25202701D01*
X65695523Y-25184523D01*
X65713701Y-25168047D01*
X65733407Y-25153432D01*
X65754450Y-25140820D01*
X65776629Y-25130330D01*
X65799728Y-25122065D01*
X65823527Y-25116104D01*
X65847795Y-25112504D01*
X65872299Y-25111300D01*
X67452301Y-25111300D01*
X67476805Y-25112504D01*
X67476805Y-25112504D01*
G37*
D15*
G04 #@! TD*
G04 #@! TO.P,J3,1*
G04 #@! TO.N,-12V*
X66662300Y-26911300D03*
D13*
G04 #@! TO.P,J3,2*
G04 #@! TO.N,GND*
X61582300Y-26911300D03*
G04 #@! TO.P,J3,3*
G04 #@! TO.N,+12V*
X56502300Y-26911300D03*
G04 #@! TD*
D20*
G04 #@! TO.P,Q1,1*
G04 #@! TO.N,Net-(Q1-Pad1)*
X52695500Y-95645300D03*
G04 #@! TO.P,Q1,2*
G04 #@! TO.N,Net-(C1-Pad1)*
X54165500Y-97145300D03*
G04 #@! TO.P,Q1,3*
G04 #@! TO.N,Net-(C2-Pad2)*
X55595500Y-95645300D03*
G04 #@! TD*
G04 #@! TO.P,Q2,1*
G04 #@! TO.N,Net-(Q1-Pad1)*
X64557300Y-95302400D03*
G04 #@! TO.P,Q2,2*
G04 #@! TO.N,Net-(Q2-Pad2)*
X66027300Y-96802400D03*
G04 #@! TO.P,Q2,3*
G04 #@! TO.N,Net-(Q2-Pad3)*
X67457300Y-95302400D03*
G04 #@! TD*
G04 #@! TO.P,Q3,3*
G04 #@! TO.N,Net-(Q1-Pad1)*
X52652600Y-86151700D03*
G04 #@! TO.P,Q3,2*
G04 #@! TO.N,Net-(Dz1-Pad2)*
X51152600Y-84721700D03*
G04 #@! TO.P,Q3,1*
G04 #@! TO.N,Net-(Q3-Pad1)*
X52652600Y-83251700D03*
G04 #@! TD*
G04 #@! TO.P,Q4,3*
G04 #@! TO.N,Net-(C2-Pad1)*
X96588600Y-95908800D03*
G04 #@! TO.P,Q4,2*
G04 #@! TO.N,Net-(C2-Pad2)*
X98018600Y-94408800D03*
G04 #@! TO.P,Q4,1*
G04 #@! TO.N,Net-(Q4-Pad1)*
X99488600Y-95908800D03*
G04 #@! TD*
G04 #@! TO.P,Q5,1*
G04 #@! TO.N,Net-(Q5-Pad1)*
X94207200Y-84743900D03*
G04 #@! TO.P,Q5,2*
G04 #@! TO.N,Net-(Q4-Pad1)*
X95707200Y-83273900D03*
G04 #@! TO.P,Q5,3*
G04 #@! TO.N,Net-(C2-Pad1)*
X94207200Y-81843900D03*
G04 #@! TD*
G04 #@! TO.P,Q6,3*
G04 #@! TO.N,Net-(Q6-Pad3)*
X72315400Y-63517800D03*
G04 #@! TO.P,Q6,2*
G04 #@! TO.N,Net-(Q6-Pad2)*
X73815400Y-64947800D03*
G04 #@! TO.P,Q6,1*
G04 #@! TO.N,Net-(Q6-Pad1)*
X72315400Y-66417800D03*
G04 #@! TD*
G04 #@! TO.P,Q7,1*
G04 #@! TO.N,Net-(Q7-Pad1)*
X65090700Y-85459900D03*
G04 #@! TO.P,Q7,2*
G04 #@! TO.N,Net-(Q6-Pad2)*
X66560700Y-86959900D03*
G04 #@! TO.P,Q7,3*
G04 #@! TO.N,Net-(Q7-Pad3)*
X67990700Y-85459900D03*
G04 #@! TD*
D21*
G04 #@! TO.P,Q8,1*
G04 #@! TO.N,Net-(C2-Pad1)*
X52298600Y-61836300D03*
G04 #@! TO.P,Q8,2*
G04 #@! TO.N,Net-(Q6-Pad3)*
X52298600Y-59296300D03*
G04 #@! TO.P,Q8,3*
G04 #@! TO.N,Net-(Q8-Pad3)*
X52298600Y-56756300D03*
G04 #@! TD*
D22*
G04 #@! TO.P,Q9,1*
G04 #@! TO.N,Net-(Q10-Pad2)*
X52946300Y-52209700D03*
G04 #@! TO.P,Q9,2*
G04 #@! TO.N,Net-(Q10-Pad1)*
X50406300Y-52209700D03*
G04 #@! TO.P,Q9,3*
G04 #@! TO.N,Net-(Q6-Pad3)*
X47866300Y-52209700D03*
G04 #@! TD*
D23*
G04 #@! TO.P,Q10,3*
G04 #@! TO.N,+12V*
X55549800Y-45377100D03*
G04 #@! TO.P,Q10,2*
G04 #@! TO.N,Net-(Q10-Pad2)*
X53009800Y-45377100D03*
G04 #@! TO.P,Q10,1*
G04 #@! TO.N,Net-(Q10-Pad1)*
X50469800Y-45377100D03*
G04 #@! TD*
D21*
G04 #@! TO.P,Q11,3*
G04 #@! TO.N,Net-(C2-Pad1)*
X111188500Y-71348600D03*
G04 #@! TO.P,Q11,2*
G04 #@! TO.N,Net-(Q11-Pad2)*
X111188500Y-68808600D03*
G04 #@! TO.P,Q11,1*
G04 #@! TO.N,Net-(Q11-Pad1)*
X111188500Y-66268600D03*
G04 #@! TD*
D23*
G04 #@! TO.P,Q12,1*
G04 #@! TO.N,Net-(Q11-Pad2)*
X118711262Y-53842249D03*
G04 #@! TO.P,Q12,2*
G04 #@! TO.N,-12V*
X116171262Y-53842249D03*
G04 #@! TO.P,Q12,3*
G04 #@! TO.N,Net-(Q11-Pad1)*
X113631262Y-53842249D03*
G04 #@! TD*
D20*
G04 #@! TO.P,Q13,3*
G04 #@! TO.N,Net-(D1-Pad2)*
X116819700Y-42403700D03*
G04 #@! TO.P,Q13,2*
G04 #@! TO.N,Net-(D2-Pad1)*
X118249700Y-40903700D03*
G04 #@! TO.P,Q13,1*
G04 #@! TO.N,GND*
X119719700Y-42403700D03*
G04 #@! TD*
D11*
G04 #@! TO.P,R1,2*
G04 #@! TO.N,GND*
X41960800Y-106527600D03*
G04 #@! TO.P,R1,1*
G04 #@! TO.N,Net-(C1-Pad1)*
X41960800Y-96367600D03*
G04 #@! TD*
G04 #@! TO.P,R2,2*
G04 #@! TO.N,-12V*
X73253600Y-105067100D03*
G04 #@! TO.P,R2,1*
G04 #@! TO.N,Net-(C2-Pad2)*
X83413600Y-105067100D03*
G04 #@! TD*
G04 #@! TO.P,R3,2*
G04 #@! TO.N,-12V*
X76631800Y-101803200D03*
G04 #@! TO.P,R3,1*
G04 #@! TO.N,Net-(Q2-Pad3)*
X76631800Y-91643200D03*
G04 #@! TD*
G04 #@! TO.P,R4,1*
G04 #@! TO.N,+12V*
X54813200Y-68897500D03*
G04 #@! TO.P,R4,2*
G04 #@! TO.N,Net-(Q3-Pad1)*
X54813200Y-79057500D03*
G04 #@! TD*
G04 #@! TO.P,R5,2*
G04 #@! TO.N,GND*
X44424600Y-77851000D03*
G04 #@! TO.P,R5,1*
G04 #@! TO.N,Net-(Dz1-Pad2)*
X44424600Y-88011000D03*
G04 #@! TD*
G04 #@! TO.P,R6,1*
G04 #@! TO.N,Net-(Q5-Pad1)*
X95275400Y-89522300D03*
G04 #@! TO.P,R6,2*
G04 #@! TO.N,-12V*
X105435400Y-89522300D03*
G04 #@! TD*
G04 #@! TO.P,R7,2*
G04 #@! TO.N,Net-(Q6-Pad1)*
X64046100Y-79019400D03*
G04 #@! TO.P,R7,1*
G04 #@! TO.N,+12V*
X64046100Y-68859400D03*
G04 #@! TD*
G04 #@! TO.P,R8,1*
G04 #@! TO.N,Net-(C2-Pad1)*
X64452500Y-64363600D03*
G04 #@! TO.P,R8,2*
G04 #@! TO.N,Net-(R8-Pad2)*
X64452500Y-54203600D03*
G04 #@! TD*
G04 #@! TO.P,R9,1*
G04 #@! TO.N,+12V*
X59270900Y-68859400D03*
G04 #@! TO.P,R9,2*
G04 #@! TO.N,Net-(Q7-Pad1)*
X59270900Y-79019400D03*
G04 #@! TD*
G04 #@! TO.P,R10,1*
G04 #@! TO.N,Net-(Q7-Pad3)*
X71755000Y-85471000D03*
G04 #@! TO.P,R10,2*
G04 #@! TO.N,Net-(R10-Pad2)*
X81915000Y-85471000D03*
G04 #@! TD*
D17*
G04 #@! TO.P,R11,1*
G04 #@! TO.N,Net-(Q10-Pad2)*
X78092300Y-50596800D03*
D24*
G04 #@! TO.P,R11,2*
G04 #@! TO.N,Net-(R11-Pad2)*
X78092300Y-30276800D03*
G04 #@! TD*
G04 #@! TO.P,R12,2*
G04 #@! TO.N,Net-(Q11-Pad1)*
X85293200Y-50685700D03*
D17*
G04 #@! TO.P,R12,1*
G04 #@! TO.N,Net-(R11-Pad2)*
X85293200Y-30365700D03*
G04 #@! TD*
D11*
G04 #@! TO.P,R13,2*
G04 #@! TO.N,GND*
X99783900Y-27508200D03*
G04 #@! TO.P,R13,1*
G04 #@! TO.N,Net-(R11-Pad2)*
X89623900Y-27508200D03*
G04 #@! TD*
G04 #@! TO.P,R14,1*
G04 #@! TO.N,Net-(R11-Pad2)*
X82181700Y-57848500D03*
G04 #@! TO.P,R14,2*
G04 #@! TO.N,Net-(Q2-Pad2)*
X82181700Y-68008500D03*
G04 #@! TD*
G04 #@! TO.P,R15,1*
G04 #@! TO.N,Net-(Q2-Pad2)*
X74879200Y-75907900D03*
G04 #@! TO.P,R15,2*
G04 #@! TO.N,GND*
X85039200Y-75907900D03*
G04 #@! TD*
G04 #@! TO.P,R16,2*
G04 #@! TO.N,Net-(C3-Pad1)*
X122275600Y-35331400D03*
G04 #@! TO.P,R16,1*
G04 #@! TO.N,Net-(R16-Pad1)*
X112115600Y-35331400D03*
G04 #@! TD*
G04 #@! TO.P,R17,1*
G04 #@! TO.N,Net-(D2-Pad1)*
X131381500Y-44691300D03*
G04 #@! TO.P,R17,2*
G04 #@! TO.N,GND*
X131381500Y-34531300D03*
G04 #@! TD*
D25*
G04 #@! TO.P,RV1,3*
G04 #@! TO.N,Net-(R8-Pad2)*
X58953400Y-54279800D03*
G04 #@! TO.P,RV1,2*
G04 #@! TO.N,Net-(Q8-Pad3)*
X58953400Y-56819800D03*
G04 #@! TO.P,RV1,1*
G04 #@! TO.N,Net-(Q6-Pad3)*
X58953400Y-59359800D03*
G04 #@! TD*
D26*
G04 #@! TO.P,RV2,1*
G04 #@! TO.N,Net-(R10-Pad2)*
X84493100Y-80683100D03*
G04 #@! TO.P,RV2,2*
X81953100Y-80683100D03*
G04 #@! TO.P,RV2,3*
G04 #@! TO.N,GND*
X79413100Y-80683100D03*
G04 #@! TD*
D27*
G04 #@! TO.P,U2,TN*
G04 #@! TO.N,Net-(U2-PadTN)*
X123667900Y-103085900D03*
G04 #@! TO.P,U2,G*
G04 #@! TO.N,GND*
X134767900Y-103085900D03*
G04 #@! TO.P,U2,T*
G04 #@! TO.N,Net-(C1-Pad2)*
X129467900Y-103085900D03*
G04 #@! TD*
D28*
G04 #@! TO.N,*
X32863800Y-27199600D03*
X133863800Y-27199600D03*
X32863800Y-117199600D03*
X132863800Y-117199600D03*
D29*
G04 #@! TO.N,Net-(C2-Pad1)*
X99847400Y-78663800D03*
X106210102Y-72339200D03*
X67208400Y-67056000D03*
X84632800Y-71361300D03*
G04 #@! TO.N,Net-(Q11-Pad1)*
X89395300Y-50736502D03*
X96723200Y-50634900D03*
G04 #@! TD*
D30*
G04 #@! TO.N,Net-(C2-Pad1)*
X99847400Y-78663800D02*
X106172002Y-72339200D01*
X106172002Y-72339200D02*
X106210102Y-72339200D01*
X67208400Y-67056000D02*
X71513700Y-71361300D01*
X71513700Y-71361300D02*
X83289298Y-71361300D01*
X83289298Y-71361300D02*
X84632800Y-71361300D01*
G04 #@! TO.N,Net-(Q11-Pad1)*
X89395300Y-50736502D02*
X96621598Y-50736502D01*
X96621598Y-50736502D02*
X96723200Y-50634900D01*
G04 #@! TD*
M02*
